<mxfile host="65bd71144e" scale="1" border="10">
    <diagram id="59DvSauhzj3vqoOBRgNi" name="iterator">
        <mxGraphModel dx="1632" dy="851" grid="1" gridSize="10" guides="1" tooltips="1" connect="1" arrows="1" fold="1" page="1" pageScale="1" pageWidth="827" pageHeight="1169" background="#FFFFFF" math="0" shadow="0">
            <root>
                <mxCell id="w9Iu98WscyFDLbroQzuf-0"/>
                <mxCell id="w9Iu98WscyFDLbroQzuf-1" parent="w9Iu98WscyFDLbroQzuf-0"/>
                <mxCell id="Yrwoq0YL18L5McrpzAKP-1" value="std::vector::push_back" style="text;strokeColor=#666666;fillColor=#f5f5f5;html=1;fontSize=24;fontStyle=1;verticalAlign=middle;align=center;shadow=0;labelBorderColor=none;fontColor=#333333;" parent="w9Iu98WscyFDLbroQzuf-1" vertex="1">
                    <mxGeometry x="235" y="250" width="285" height="40" as="geometry"/>
                </mxCell>
                <mxCell id="Yrwoq0YL18L5McrpzAKP-21" value="value0" style="rounded=0;whiteSpace=wrap;html=1;shadow=0;labelBorderColor=none;strokeColor=#666666;fillColor=#f5f5f5;fontColor=#333333;" parent="w9Iu98WscyFDLbroQzuf-1" vertex="1">
                    <mxGeometry x="235" y="340" width="80" height="40" as="geometry"/>
                </mxCell>
                <mxCell id="Yrwoq0YL18L5McrpzAKP-22" value="value1" style="rounded=0;whiteSpace=wrap;html=1;shadow=0;labelBorderColor=none;strokeColor=#666666;fillColor=#f5f5f5;fontColor=#333333;" parent="w9Iu98WscyFDLbroQzuf-1" vertex="1">
                    <mxGeometry x="315" y="340" width="80" height="40" as="geometry"/>
                </mxCell>
                <mxCell id="Yrwoq0YL18L5McrpzAKP-24" value="" style="rounded=0;whiteSpace=wrap;html=1;shadow=0;labelBorderColor=none;strokeColor=#666666;fillColor=#f5f5f5;fontColor=#333333;" parent="w9Iu98WscyFDLbroQzuf-1" vertex="1">
                    <mxGeometry x="395" y="340" width="80" height="40" as="geometry"/>
                </mxCell>
                <mxCell id="Yrwoq0YL18L5McrpzAKP-31" value="" style="edgeStyle=none;html=1;fillColor=#f5f5f5;strokeColor=#666666;" parent="w9Iu98WscyFDLbroQzuf-1" source="Yrwoq0YL18L5McrpzAKP-30" edge="1">
                    <mxGeometry relative="1" as="geometry">
                        <mxPoint x="435" y="380" as="targetPoint"/>
                    </mxGeometry>
                </mxCell>
                <mxCell id="Yrwoq0YL18L5McrpzAKP-30" value="push_back(value2)" style="rounded=0;whiteSpace=wrap;html=1;shadow=0;labelBorderColor=none;strokeColor=#666666;fillColor=#f5f5f5;fontColor=#333333;" parent="w9Iu98WscyFDLbroQzuf-1" vertex="1">
                    <mxGeometry x="380" y="420" width="110" height="40" as="geometry"/>
                </mxCell>
                <mxCell id="0" value="容器有预分配空间时" style="text;html=1;align=center;verticalAlign=middle;resizable=0;points=[];autosize=1;strokeColor=#666666;fillColor=#f5f5f5;fontColor=#333333;fontSize=18;" vertex="1" parent="w9Iu98WscyFDLbroQzuf-1">
                    <mxGeometry x="272.5" y="300" width="180" height="30" as="geometry"/>
                </mxCell>
                <mxCell id="6" value="容器没有预分配空间时" style="text;html=1;align=center;verticalAlign=middle;resizable=0;points=[];autosize=1;strokeColor=#666666;fillColor=#f5f5f5;fontColor=#333333;fontSize=18;" vertex="1" parent="w9Iu98WscyFDLbroQzuf-1">
                    <mxGeometry x="252.5" y="500" width="200" height="30" as="geometry"/>
                </mxCell>
                <mxCell id="45" value="" style="edgeStyle=none;html=1;fontSize=15;fillColor=#f5f5f5;strokeColor=#666666;" edge="1" parent="w9Iu98WscyFDLbroQzuf-1" source="9" target="12">
                    <mxGeometry relative="1" as="geometry"/>
                </mxCell>
                <mxCell id="9" value="value0" style="rounded=0;whiteSpace=wrap;html=1;shadow=0;labelBorderColor=none;strokeColor=#666666;fillColor=#f5f5f5;fontColor=#333333;" vertex="1" parent="w9Iu98WscyFDLbroQzuf-1">
                    <mxGeometry x="235" y="540" width="80" height="40" as="geometry"/>
                </mxCell>
                <mxCell id="43" value="" style="edgeStyle=none;html=1;fontSize=15;fillColor=#f5f5f5;strokeColor=#666666;" edge="1" parent="w9Iu98WscyFDLbroQzuf-1" source="10" target="13">
                    <mxGeometry relative="1" as="geometry"/>
                </mxCell>
                <mxCell id="10" value="value1" style="rounded=0;whiteSpace=wrap;html=1;shadow=0;labelBorderColor=none;strokeColor=#666666;fillColor=#f5f5f5;fontColor=#333333;" vertex="1" parent="w9Iu98WscyFDLbroQzuf-1">
                    <mxGeometry x="315" y="540" width="80" height="40" as="geometry"/>
                </mxCell>
                <mxCell id="46" value="" style="edgeStyle=none;html=1;fontSize=15;fillColor=#f5f5f5;strokeColor=#666666;" edge="1" parent="w9Iu98WscyFDLbroQzuf-1" source="11" target="14">
                    <mxGeometry relative="1" as="geometry"/>
                </mxCell>
                <mxCell id="11" value="value2" style="rounded=0;whiteSpace=wrap;html=1;shadow=0;labelBorderColor=none;strokeColor=#666666;fillColor=#f5f5f5;fontColor=#333333;" vertex="1" parent="w9Iu98WscyFDLbroQzuf-1">
                    <mxGeometry x="395" y="540" width="80" height="40" as="geometry"/>
                </mxCell>
                <mxCell id="12" value="value0" style="rounded=0;whiteSpace=wrap;html=1;shadow=0;labelBorderColor=none;strokeColor=#666666;fillColor=#f5f5f5;fontColor=#333333;" vertex="1" parent="w9Iu98WscyFDLbroQzuf-1">
                    <mxGeometry x="235" y="650" width="80" height="40" as="geometry"/>
                </mxCell>
                <mxCell id="13" value="value1" style="rounded=0;whiteSpace=wrap;html=1;shadow=0;labelBorderColor=none;strokeColor=#666666;fillColor=#f5f5f5;fontColor=#333333;" vertex="1" parent="w9Iu98WscyFDLbroQzuf-1">
                    <mxGeometry x="315" y="650" width="80" height="40" as="geometry"/>
                </mxCell>
                <mxCell id="14" value="value2" style="rounded=0;whiteSpace=wrap;html=1;shadow=0;labelBorderColor=none;strokeColor=#666666;fillColor=#f5f5f5;fontColor=#333333;" vertex="1" parent="w9Iu98WscyFDLbroQzuf-1">
                    <mxGeometry x="395" y="650" width="80" height="40" as="geometry"/>
                </mxCell>
                <mxCell id="15" value="" style="rounded=0;whiteSpace=wrap;html=1;shadow=0;labelBorderColor=none;strokeColor=#666666;fillColor=#f5f5f5;fontColor=#333333;" vertex="1" parent="w9Iu98WscyFDLbroQzuf-1">
                    <mxGeometry x="475" y="650" width="80" height="40" as="geometry"/>
                </mxCell>
                <mxCell id="16" value="" style="rounded=0;whiteSpace=wrap;html=1;shadow=0;labelBorderColor=none;strokeColor=#666666;fillColor=#f5f5f5;fontColor=#333333;" vertex="1" parent="w9Iu98WscyFDLbroQzuf-1">
                    <mxGeometry x="555" y="650" width="80" height="40" as="geometry"/>
                </mxCell>
                <mxCell id="17" value="" style="rounded=0;whiteSpace=wrap;html=1;shadow=0;labelBorderColor=none;strokeColor=#666666;fillColor=#f5f5f5;fontColor=#333333;" vertex="1" parent="w9Iu98WscyFDLbroQzuf-1">
                    <mxGeometry x="635" y="650" width="80" height="40" as="geometry"/>
                </mxCell>
                <mxCell id="31" value="" style="edgeStyle=none;html=1;entryX=0.5;entryY=1;entryDx=0;entryDy=0;fillColor=#f5f5f5;strokeColor=#666666;" edge="1" parent="w9Iu98WscyFDLbroQzuf-1" source="30" target="15">
                    <mxGeometry relative="1" as="geometry"/>
                </mxCell>
                <mxCell id="30" value="push_back(value3)" style="rounded=0;whiteSpace=wrap;html=1;shadow=0;labelBorderColor=none;strokeColor=#666666;fillColor=#f5f5f5;fontColor=#333333;" vertex="1" parent="w9Iu98WscyFDLbroQzuf-1">
                    <mxGeometry x="460" y="730" width="110" height="40" as="geometry"/>
                </mxCell>
                <mxCell id="33" value="重新申请内存并复制" style="text;html=1;align=center;verticalAlign=middle;resizable=0;points=[];autosize=1;strokeColor=#666666;fillColor=#f5f5f5;fontColor=#333333;fontSize=18;" vertex="1" parent="w9Iu98WscyFDLbroQzuf-1">
                    <mxGeometry x="262.5" y="600" width="180" height="30" as="geometry"/>
                </mxCell>
            </root>
        </mxGraphModel>
    </diagram>
</mxfile>